<?xml version="1.0" encoding="utf-8"?>
<!-- Generator: Adobe Illustrator 17.1.0, SVG Export Plug-In . SVG Version: 6.00 Build 0)  -->
<!DOCTYPE svg PUBLIC "-//W3C//DTD SVG 1.0//EN" "http://www.w3.org/TR/2001/REC-SVG-20010904/DTD/svg10.dtd">
<svg version="1.0" xmlns="http://www.w3.org/2000/svg" xmlns:xlink="http://www.w3.org/1999/xlink" x="0px" y="0px"
	 viewBox="0 0 60 60" enable-background="new 0 0 60 60" xml:space="preserve">
<g id="_x25_ant_x5F_walk_x5F_2" display="none">
	<g id="legs" display="inline">
		<polygon fill="#1A1A1A" points="18.8,59.5 17.2,59.7 19.4,40.8 26,40.8 		"/>
		<polygon fill="#1A1A1A" points="33.6,58.8 32.3,59.7 32.1,40.7 38.6,39.8 		"/>
		<polygon fill="#1A1A1A" points="50.3,58.7 49,59.7 44.1,41.3 50.3,38.9 		"/>
		<polygon fill="#1A1A1A" points="26,59 25,59.7 20.4,41.2 26.6,38.9 		"/>
		<polygon fill="#1A1A1A" points="41,58.4 40.1,59.7 35.8,41.1 42.1,38.9 		"/>
		<polygon fill="#1A1A1A" points="57.4,58 56.8,59.7 46.2,43.9 51.2,39.6 		"/>
	</g>
	<g display="inline">
		<g>
			<path fill="#F15A24" d="M44.4,26.5c-4.3,0-8.1,1.4-10.9,3.6c-2.1-1.9-4.9-3.1-8-3.1c-6.3,0-11.3,4.7-11.3,10.6
				s5.1,10.6,11.3,10.6c2.9,0,5.6-1,7.6-2.7c2.7,2.4,6.8,3.9,11.3,3.9c8.3,0,15-5.1,15-11.4C59.3,31.6,52.6,26.5,44.4,26.5z"/>
			<path fill="#B3242A" d="M45.7,43.7c-4.5,0-8.6-1.5-11.3-3.9c-2,1.7-4.7,2.7-7.6,2.7c-6.1,0-11-4.4-11.3-10
				c-0.9,1.5-1.4,3.2-1.4,5c0,5.8,5.1,10.6,11.3,10.6c2.9,0,5.6-1,7.6-2.7c2.7,2.4,6.8,3.9,11.3,3.9c8.3,0,15-5.1,15-11.4
				c0-0.3,0-0.5-0.1-0.8C56.9,41,51.7,43.7,45.7,43.7z"/>
		</g>
		<g>
			
				<ellipse transform="matrix(0.8513 0.5247 -0.5247 0.8513 14.9814 -2.4619)" fill="#F15A24" cx="11.8" cy="25.2" rx="10.7" ry="12.3"/>
			<path fill="#B3242A" d="M21.7,24.3c-3.6,5.8-10.2,8.2-14.8,5.4c-3.3-2-4.6-6.2-3.8-10.6c-0.1,0.2-0.2,0.3-0.3,0.5
				c-3.6,5.8-2.4,13,2.6,16.1c5,3.1,12,0.9,15.6-4.9c1.7-2.8,2.3-6,1.9-8.9C22.5,22.8,22.1,23.5,21.7,24.3z"/>
		</g>
		<path fill="#1A1A1A" d="M13.9,17c0,0,3.2-7.8,2-9.1c-2.5-2.5-9.1,0-9.1,0s-3-2.1-2.5-3.7c0.5-1.6,12.6-1,14.7,1.7
			C21.1,8.6,13.9,17,13.9,17z"/>
		<path fill="#1A1A1A" d="M8.8,24.3c1.3,0.3,2.5,0.7,3.4,1.3c0.4-0.6,0.7-1.3,0.9-2c0.5-2.4-0.8-4.7-2.8-5.1c-2-0.4-4.1,1.3-4.5,3.7
			c-0.1,0.7-0.1,1.4,0,2C6.7,24,7.7,24,8.8,24.3z"/>
	</g>
</g>
<g id="_x25_ant_x5F_walk_x5F_1" display="none">
	<g id="legs2_4_" display="inline">
		<polygon fill="#1A1A1A" points="23,59.1 21.9,59.6 19.8,40.7 26.2,39.2 		"/>
		<polygon fill="#1A1A1A" points="37.6,58.5 36.5,59.6 33.9,40.8 40.3,39.1 		"/>
		<polygon fill="#1A1A1A" points="54,58.2 53.2,59.8 45.4,42.4 51,39 		"/>
	</g>
	<g display="inline">
		<g>
			<path fill="#F15A24" d="M44.4,26.5c-4.3,0-8.1,1.4-10.9,3.6c-2.1-1.9-4.9-3.1-8-3.1c-6.3,0-11.3,4.7-11.3,10.6
				s5.1,10.6,11.3,10.6c2.9,0,5.6-1,7.6-2.7c2.7,2.4,6.8,3.9,11.3,3.9c8.3,0,15-5.1,15-11.4C59.3,31.6,52.6,26.5,44.4,26.5z"/>
			<path fill="#B3242A" d="M45.7,43.7c-4.5,0-8.6-1.5-11.3-3.9c-2,1.7-4.7,2.7-7.6,2.7c-6.1,0-11-4.4-11.3-10
				c-0.9,1.5-1.4,3.2-1.4,5c0,5.8,5.1,10.6,11.3,10.6c2.9,0,5.6-1,7.6-2.7c2.7,2.4,6.8,3.9,11.3,3.9c8.3,0,15-5.1,15-11.4
				c0-0.3,0-0.5-0.1-0.8C56.9,41,51.7,43.7,45.7,43.7z"/>
		</g>
		<g>
			
				<ellipse transform="matrix(0.8513 0.5247 -0.5247 0.8513 14.9814 -2.4619)" fill="#F15A24" cx="11.8" cy="25.2" rx="10.7" ry="12.3"/>
			<path fill="#B3242A" d="M21.7,24.3c-3.6,5.8-10.2,8.2-14.8,5.4c-3.3-2-4.6-6.2-3.8-10.6c-0.1,0.2-0.2,0.3-0.3,0.5
				c-3.6,5.8-2.4,13,2.6,16.1c5,3.1,12,0.9,15.6-4.9c1.7-2.8,2.3-6,1.9-8.9C22.5,22.8,22.1,23.5,21.7,24.3z"/>
		</g>
		<path fill="#1A1A1A" d="M13.9,17c0,0,3.2-7.8,2-9.1c-2.5-2.5-9.1,0-9.1,0s-3-2.1-2.5-3.7c0.5-1.6,12.6-1,14.7,1.7
			C21.1,8.6,13.9,17,13.9,17z"/>
		<path fill="#1A1A1A" d="M8.8,24.3c1.3,0.3,2.5,0.7,3.4,1.3c0.4-0.6,0.7-1.3,0.9-2c0.5-2.4-0.8-4.7-2.8-5.1c-2-0.4-4.1,1.3-4.5,3.7
			c-0.1,0.7-0.1,1.4,0,2C6.7,24,7.7,24,8.8,24.3z"/>
	</g>
</g>
<g id="_x25_ant_x5F_stand">
	<g id="legs2_1_">
		<polygon fill="#1A1A1A" points="23,59.1 21.9,59.6 19.8,40.7 26.2,39.2 		"/>
		<polygon fill="#1A1A1A" points="37.6,58.5 36.5,59.6 33.9,40.8 40.3,39.1 		"/>
		<polygon fill="#1A1A1A" points="54,58.2 53.2,59.8 45.4,42.4 51,39 		"/>
	</g>
	<g>
		<g>
			<path fill="#F15A24" d="M44.4,26.5c-4.3,0-8.1,1.4-10.9,3.6c-2.1-1.9-4.9-3.1-8-3.1c-6.3,0-11.3,4.7-11.3,10.6
				s5.1,10.6,11.3,10.6c2.9,0,5.6-1,7.6-2.7c2.7,2.4,6.8,3.9,11.3,3.9c8.3,0,15-5.1,15-11.4C59.3,31.6,52.6,26.5,44.4,26.5z"/>
			<path fill="#B3242A" d="M45.7,43.7c-4.5,0-8.6-1.5-11.3-3.9c-2,1.7-4.7,2.7-7.6,2.7c-6.1,0-11-4.4-11.3-10
				c-0.9,1.5-1.4,3.2-1.4,5c0,5.8,5.1,10.6,11.3,10.6c2.9,0,5.6-1,7.6-2.7c2.7,2.4,6.8,3.9,11.3,3.9c8.3,0,15-5.1,15-11.4
				c0-0.3,0-0.5-0.1-0.8C56.9,41,51.7,43.7,45.7,43.7z"/>
		</g>
		<g>
			
				<ellipse transform="matrix(0.8513 0.5247 -0.5247 0.8513 14.9814 -2.4619)" fill="#F15A24" cx="11.8" cy="25.2" rx="10.7" ry="12.3"/>
			<path fill="#B3242A" d="M21.7,24.3c-3.6,5.8-10.2,8.2-14.8,5.4c-3.3-2-4.6-6.2-3.8-10.6c-0.1,0.2-0.2,0.3-0.3,0.5
				c-3.6,5.8-2.4,13,2.6,16.1c5,3.1,12,0.9,15.6-4.9c1.7-2.8,2.3-6,1.9-8.9C22.5,22.8,22.1,23.5,21.7,24.3z"/>
		</g>
		<path fill="#1A1A1A" d="M13.9,17c0,0,3.2-7.8,2-9.1c-2.5-2.5-9.4-3-9.4-3s-2.2-3-1.2-4.3c1-1.3,11.6,2.6,13.7,5.3
			C21.1,8.6,13.9,17,13.9,17z"/>
		<path fill="#1A1A1A" d="M8.8,24.3c1.3,0.3,2.5,0.7,3.4,1.3c0.4-0.6,0.7-1.3,0.9-2c0.5-2.4-0.8-4.7-2.8-5.1c-2-0.4-4.1,1.3-4.5,3.7
			c-0.1,0.7-0.1,1.4,0,2C6.7,24,7.7,24,8.8,24.3z"/>
	</g>
</g>
</svg>
